<?xml version="1.0" standalone="no"?>
<!DOCTYPE svg PUBLIC "-//W3C//DTD SVG 20010904//EN"
 "http://www.w3.org/TR/2001/REC-SVG-20010904/DTD/svg10.dtd">
<svg version="1.0" xmlns="http://www.w3.org/2000/svg"
 width="5000.000000pt" height="5000.000000pt" viewBox="0 0 5000.000000 5000.000000"
 preserveAspectRatio="xMidYMid meet">
<metadata>
Created by potrace 1.11, written by Peter Selinger 2001-2013
</metadata>
<g transform="translate(0.000000,5000.000000) scale(0.100000,-0.100000)"
fill="#000000" stroke="none">
<path d="M12230 41829 c-308 -80 -531 -331 -570 -641 -7 -55 -10 -834 -10
-2333 0 -1237 0 -2256 0 -2262 0 -10 -505 -13 -2492 -13 -2698 0 -2549 3
-2688 -53 -177 -72 -336 -222 -405 -382 -10 -22 -22 -49 -27 -60 -10 -23 -16
-47 -33 -135 -11 -53 -13 -2237 -14 -11575 0 -7560 3 -11579 9 -11710 6 -110
13 -234 15 -275 18 -296 92 -790 157 -1045 11 -44 21 -87 23 -95 29 -129 141
-498 156 -514 5 -6 9 -16 9 -24 0 -13 52 -152 85 -227 8 -16 26 -59 40 -95 39
-92 175 -362 236 -466 177 -302 376 -562 614 -800 232 -234 417 -380 672 -532
123 -74 420 -222 445 -222 8 0 18 -4 23 -9 11 -11 294 -106 340 -115 17 -3 57
-12 90 -21 51 -13 124 -27 210 -40 11 -2 56 -10 100 -17 66 -11 2705 -13
15100 -13 14379 0 15026 1 15165 18 205 25 212 26 340 48 168 29 408 84 540
124 63 20 139 42 168 50 29 8 66 22 82 30 16 8 34 15 41 15 6 0 72 24 148 54
934 369 1721 992 2309 1827 268 380 524 899 657 1329 13 41 28 87 34 103 6 15
9 27 6 27 -2 0 3 19 11 43 14 40 58 205 68 257 2 14 11 57 20 95 17 83 51 286
66 400 11 84 14 128 30 370 6 96 10 5202 10 14171 0 12540 -2 14031 -15 14109
-51 293 -267 526 -559 602 l-90 23 -15520 -1 c-15377 0 -15522 0 -15596 -20z
m30269 -15157 c-1 -13947 0 -13716 -34 -13970 -3 -26 -8 -54 -10 -62 -2 -8 -6
-36 -10 -63 -3 -26 -19 -105 -36 -175 -17 -70 -32 -134 -34 -142 -2 -8 -8 -28
-15 -45 -6 -16 -11 -31 -10 -33 2 -3 -59 -191 -70 -217 -5 -11 -28 -67 -51
-125 -341 -850 -1070 -1573 -1940 -1925 -101 -41 -303 -112 -339 -120 -8 -2
-42 -10 -75 -19 -33 -9 -71 -19 -85 -22 -14 -3 -52 -11 -85 -19 -100 -24 -352
-61 -470 -70 -55 -4 -26967 -7 -26975 -3 -2 2 21 41 51 88 249 378 483 902
605 1350 36 131 74 280 79 310 6 32 10 51 29 130 21 90 63 348 80 488 25 201
28 234 46 497 6 90 10 5088 10 13980 l0 13840 14670 -3 14670 -2 -1 -13668z
m-30852 -2889 c-2 -8477 -6 -11312 -15 -11383 -6 -52 -14 -115 -17 -140 -17
-141 -54 -377 -69 -445 -92 -411 -183 -681 -326 -966 -135 -269 -273 -463
-470 -660 -220 -220 -419 -352 -663 -438 -193 -68 -334 -92 -522 -91 -136 0
-140 1 -245 20 -156 27 -351 95 -480 167 -462 257 -836 741 -1067 1382 -53
148 -146 480 -159 571 -3 19 -7 41 -9 48 -4 11 -19 95 -31 172 -17 117 -38
282 -52 420 -15 152 -16 1077 -19 11398 l-3 11232 2075 0 2075 0 -3 -11287z"/>
<path d="M38310 37753 c-124 -9 -403 -46 -493 -64 -56 -11 -113 -22 -127 -25
-89 -18 -317 -82 -365 -103 -11 -5 -54 -21 -95 -36 -203 -75 -461 -228 -620
-367 -435 -381 -616 -954 -505 -1603 30 -175 113 -382 214 -535 175 -265 474
-496 846 -652 147 -62 495 -176 615 -202 14 -3 79 -19 145 -34 66 -16 156 -37
200 -46 44 -10 107 -23 140 -31 33 -7 121 -25 195 -40 186 -38 488 -111 585
-141 132 -41 278 -116 339 -174 103 -98 127 -222 67 -345 -36 -73 -79 -113
-166 -154 -139 -66 -283 -86 -605 -86 -297 0 -402 12 -554 65 -153 52 -263
155 -323 302 -30 75 -53 200 -53 291 l0 67 -887 0 -886 0 7 -135 c21 -426 116
-747 304 -1030 158 -238 383 -430 669 -570 121 -60 287 -125 382 -151 159 -44
204 -55 291 -73 52 -11 109 -22 125 -24 17 -3 59 -10 95 -16 184 -29 388 -48
650 -58 298 -12 570 -9 745 8 50 5 117 11 150 14 187 18 421 68 640 137 653
204 1086 613 1264 1193 66 218 90 403 86 670 -7 420 -124 718 -390 994 -167
173 -348 292 -645 424 -100 44 -318 122 -373 132 -9 2 -21 6 -26 9 -8 6 -358
95 -446 114 -27 6 -90 20 -140 31 -49 11 -103 22 -120 24 -72 12 -531 111
-640 138 -382 98 -576 217 -615 380 -52 216 146 381 515 428 98 13 319 16 400
7 86 -11 219 -52 297 -93 157 -82 276 -264 279 -426 0 -23 3 -54 6 -70 l5 -27
870 0 871 0 -6 158 c-6 142 -20 238 -62 406 -32 132 -144 354 -243 486 -83
109 -204 232 -308 312 -121 93 -343 220 -479 275 -132 53 -195 75 -286 102
-100 29 -203 54 -262 65 -15 3 -35 7 -45 10 -9 3 -35 7 -57 10 -22 4 -62 10
-90 16 -27 5 -77 12 -110 15 -67 7 -116 13 -190 22 -55 7 -713 12 -785 6z"/>
<path d="M14783 34768 l2 -2893 855 0 855 0 2 1360 c2 748 3 1377 3 1398 0 37
5 32 262 -265 144 -167 366 -423 493 -569 126 -146 327 -378 445 -514 118
-137 391 -452 605 -700 215 -248 441 -510 504 -583 l114 -132 811 2 811 3 3
2893 2 2892 -860 0 -860 0 0 -1410 c0 -775 -2 -1411 -5 -1412 -4 -3 -736 854
-2060 2410 l-350 411 -817 1 -818 0 3 -2892z"/>
<path d="M21780 34765 l0 -2895 2533 3 2532 2 2 698 2 697 -1599 0 -1600 0 0
435 0 435 1340 0 1340 0 0 670 0 670 -1340 -2 -1340 -3 -2 388 c-2 213 -1 392
0 397 3 7 539 10 1573 10 l1569 0 0 695 0 695 -2505 0 -2505 0 0 -2895z"/>
<path d="M27275 37618 c4 -24 18 -88 32 -143 13 -55 26 -109 29 -120 5 -20 20
-89 30 -135 2 -14 18 -79 34 -145 16 -66 48 -201 70 -300 23 -99 48 -202 55
-230 8 -27 17 -66 20 -85 3 -19 19 -91 36 -160 16 -69 39 -163 50 -210 11 -47
36 -152 55 -235 20 -82 38 -161 40 -174 3 -14 18 -81 35 -150 16 -69 39 -166
50 -216 12 -49 30 -122 40 -161 10 -40 21 -85 23 -100 3 -16 22 -96 41 -179
20 -82 38 -161 41 -175 3 -14 21 -92 41 -175 20 -82 41 -175 48 -205 7 -30 40
-174 75 -320 34 -146 66 -281 70 -300 5 -19 18 -75 29 -125 12 -49 24 -101 27
-115 3 -14 10 -43 16 -65 11 -42 16 -63 24 -105 8 -39 212 -909 246 -1050 35
-145 38 -157 44 -190 3 -14 13 -59 22 -100 l18 -75 1019 -3 c560 -1 1022 1
1026 5 4 5 10 24 13 44 3 20 8 42 10 50 3 8 7 25 10 39 8 43 45 222 61 290 8
36 17 76 19 90 3 14 16 77 30 140 14 63 27 126 30 140 2 14 11 57 19 95 9 39
30 138 47 220 18 83 34 157 35 165 2 8 33 152 69 320 35 168 72 339 81 380 9
41 29 143 46 225 17 83 32 157 35 165 2 8 22 101 44 205 22 105 42 199 45 210
8 37 123 579 131 620 13 64 30 117 39 117 11 0 32 -64 41 -122 3 -19 7 -43 10
-52 3 -9 18 -81 35 -160 17 -79 32 -152 34 -163 3 -11 21 -96 41 -190 20 -93
52 -244 71 -335 19 -91 41 -192 48 -225 7 -33 22 -105 34 -160 11 -55 35 -165
52 -245 17 -80 37 -176 45 -215 7 -38 18 -88 24 -110 5 -22 30 -139 56 -260
25 -121 50 -240 56 -265 5 -25 12 -56 14 -70 3 -14 16 -77 30 -140 14 -63 27
-124 29 -135 3 -11 23 -108 46 -215 22 -107 49 -235 60 -285 11 -49 22 -103
25 -120 3 -16 7 -36 9 -42 3 -10 226 -13 1017 -13 557 0 1018 4 1024 8 9 6 30
80 48 168 3 10 19 78 36 149 17 72 38 162 46 200 9 39 17 77 20 85 5 20 60
255 84 360 11 47 24 100 29 118 5 18 9 33 9 35 -2 3 29 137 47 207 8 31 19 76
24 100 8 40 107 462 146 625 8 33 16 71 19 85 3 14 56 243 119 510 63 267 117
496 119 510 3 14 18 77 32 140 39 163 55 234 61 260 2 8 17 71 33 140 34 138
116 486 168 710 18 80 41 175 49 211 9 36 17 74 19 85 4 20 49 210 97 409 15
66 31 131 33 145 7 34 115 491 122 513 5 16 -44 17 -925 17 l-930 0 -7 -37
c-4 -21 -8 -47 -10 -58 -2 -11 -7 -36 -10 -55 -4 -19 -8 -42 -10 -50 -31 -158
-46 -238 -49 -259 -2 -14 -12 -71 -24 -126 -11 -55 -22 -113 -25 -130 -2 -16
-9 -55 -15 -85 -12 -59 -28 -139 -35 -180 -3 -14 -12 -61 -20 -105 -8 -44 -18
-93 -21 -110 -2 -16 -7 -41 -10 -55 -6 -28 -99 -518 -145 -765 -17 -88 -42
-216 -55 -285 -14 -69 -28 -147 -31 -175 -3 -27 -11 -61 -16 -75 -5 -14 -9
-26 -8 -28 1 -3 -9 -59 -30 -172 -10 -52 -21 -108 -24 -125 -6 -36 -64 -340
-71 -372 -11 -49 -41 -15 -46 52 -1 2 -7 33 -16 67 -8 35 -16 70 -18 78 -11
51 -67 319 -71 340 -2 14 -11 57 -20 95 -9 39 -18 80 -20 91 -2 12 -20 95 -40
185 -19 90 -37 175 -40 189 -3 14 -25 122 -51 240 -25 118 -51 244 -58 280 -8
36 -34 162 -60 280 -25 118 -64 301 -86 405 -22 105 -42 198 -45 207 -3 10 -7
30 -10 45 -3 16 -21 102 -40 193 -20 91 -38 176 -40 190 -3 14 -7 33 -10 42
-3 10 -8 30 -10 45 -3 16 -10 48 -15 73 -6 25 -13 56 -15 70 -2 14 -7 37 -10
53 l-6 27 -921 -2 -921 -3 -326 -1630 c-255 -1277 -329 -1630 -340 -1630 -11
0 -22 36 -42 140 -15 77 -34 170 -43 208 -9 37 -18 79 -21 95 -3 15 -16 83
-30 152 -14 69 -28 136 -30 150 -3 14 -14 70 -25 125 -11 55 -22 111 -25 125
-2 14 -8 43 -13 65 -11 46 -18 80 -72 350 -22 110 -43 214 -46 230 -2 17 -11
62 -20 100 -8 39 -16 79 -19 90 -2 11 -9 44 -15 72 -5 29 -10 55 -10 58 0 2
-4 19 -9 36 -5 18 -12 51 -16 73 -3 23 -15 84 -26 136 -10 52 -21 106 -24 120
-4 22 -39 193 -50 245 -2 11 -6 31 -9 45 -3 14 -7 36 -10 50 -3 14 -8 36 -11
50 -2 14 -10 50 -16 80 -6 30 -13 62 -14 70 -2 8 -20 102 -41 208 l-38 192
-968 0 -969 0 7 -42z"/>
<path d="M15100 25835 l0 -4175 6090 0 6090 0 0 4175 0 4175 -6090 0 -6090 0
0 -4175z"/>
<path d="M29525 29577 c-3 -6 -4 -536 -3 -1177 l3 -1165 5303 -2 5302 -3 0
1180 0 1180 -5300 0 c-4223 0 -5302 -3 -5305 -13z"/>
<path d="M29522 23268 l3 -1173 5303 -3 5302 -2 0 1175 0 1175 -5305 0 -5305
0 2 -1172z"/>
<path d="M15722 18128 l3 -1173 12203 -2 12202 -3 0 1175 0 1175 -12205 0
-12205 0 2 -1172z"/>
<path d="M15720 12991 c0 -1058 2 -1169 16 -1175 9 -3 5501 -6 12205 -6
l12189 0 0 1175 0 1175 -12205 0 -12205 0 0 -1169z"/>
</g>
</svg>
